<?xml version="1.0" encoding="utf-8"?>
<!DOCTYPE svg PUBLIC "-//W3C//DTD SVG 1.1//EN" "http://www.w3.org/Graphics/SVG/1.1/DTD/svg11.dtd">
<?xml-stylesheet type="text/css" href="dist/img/svg.css" ?>
<svg version="1.1" id="Capa_1" xmlns="http://www.w3.org/2000/svg" xmlns:xlink="http://www.w3.org/1999/xlink" x="0px" y="0px"
	 viewBox="0 0 118 61.4" enable-background="new 0 0 118 61.4" xml:space="preserve">
<path d="M60.6,51h-2.1v-24h2.1V51z M112.8,24.7C102,21,87.8,18.8,72.5,18.6c7.5,1.1,14.4,2.6,20.3,4.7c12,4.1,18.6,9.7,18.6,15.6
	c0,6-6.6,11.5-18.6,15.6c-5.9,2-12.8,3.6-20.3,4.7c15.2-0.3,29.5-2.5,40.3-6.2c1.7-0.6,3.2-1.2,4.6-1.8v2.3
	c-11.5,4.8-28.8,7.8-48.4,7.8c-5.2,0-10.2-0.2-15-0.6c-1.8,0.1-3.6,0.1-5.5,0.1c-16.7,0-32.4-2.2-44.2-6.3c-1.5-0.5-3-1.1-4.3-1.6
	v-1.2c1.4,0.6,3,1.2,4.7,1.8c10.9,3.7,25.1,5.9,40.3,6.2C21.7,56.4,5.7,48.4,5.7,38.9c0-9.6,16-17.6,39.3-20.9
	c-15.2,0.3-29.4,2.5-40.3,6.2C3,24.8,1.4,25.4,0,26v-1.2c1.4-0.6,2.8-1.1,4.3-1.6c11.8-4.1,27.5-6.3,44.2-6.3c1.8,0,3.7,0,5.5,0.1
	c4.8-0.4,9.8-0.6,15-0.6c19.6,0,36.8,3,48.4,7.8v2.3C116,25.9,114.5,25.3,112.8,24.7z M63.5,18.6c-14.4,0.4-27.8,2.6-38.1,6.1
	c-11.1,3.8-17.5,9-17.5,14.1S14.2,49.2,25.4,53c10.3,3.6,23.7,5.7,38.1,6.1c10.9-0.9,20.9-2.8,29-5.6c11.5-4,17.9-9.2,17.9-14.6
	c0-5.5-6.4-10.7-17.9-14.6C84.4,21.4,74.4,19.5,63.5,18.6z M1.3,1.7v5.5H0.4V1.7H1.3z M3.4,1.7l1.8,4v-4H6v5.5H5.2l-2-4.4v4.4H2.4
	V1.7H3.4z M9.6,3.2c-0.2-0.5-0.4-0.9-1-0.9C8,2.3,7.8,2.8,7.8,3c0,0.5,0.4,0.7,1.1,0.9c0.6,0.2,1.6,0.6,1.6,1.7
	c0,0.8-0.6,1.7-1.9,1.7c-1.6,0-1.8-1.2-1.9-1.5l0.8-0.2c0.1,0.2,0.2,1,1.1,1c0.8,0,0.9-0.5,0.9-0.8c0-0.5-0.4-0.7-0.9-0.9
	C8,4.6,7.7,4.5,7.4,4.3C7.2,4,6.9,3.7,6.9,3.1c0-0.8,0.5-1.6,1.7-1.6c1.3,0,1.6,1,1.7,1.3L9.6,3.2z M14,1.7v0.8h-1.2v4.8h-0.9V2.5
	h-1.2V1.7H14z M15.3,1.7v5.5h-0.9V1.7H15.3z M19.1,1.7v0.8h-1.2v4.8H17V2.5h-1.2V1.7H19.1z M20.4,1.7v3.4c0,0.7,0,1.4,0.9,1.4
	c0.9,0,0.9-0.7,0.9-1.5V1.7H23v3.4c0,0.8,0,1.5-0.6,1.9c-0.2,0.2-0.6,0.3-1.2,0.3c-1.7,0-1.8-1.2-1.8-2.2V1.7H20.4z M26.7,1.7v0.8
	h-1.2v4.8h-0.9V2.5h-1.2V1.7H26.7z M30.9,4.4c0,1.1-0.3,2.9-2,2.9c-1.7,0-2-1.6-2-2.9c0-1.3,0.3-2.9,2-2.9
	C30.6,1.6,30.9,3.2,30.9,4.4z M28.1,2.9c-0.2,0.5-0.2,1.2-0.2,1.6c0,0.3,0,1.1,0.2,1.5c0.2,0.4,0.4,0.6,0.8,0.6
	c0.5,0,0.7-0.3,0.8-0.6C30,5.5,30,4.7,30,4.4c0-0.4,0-1.1-0.2-1.6c-0.1-0.3-0.3-0.6-0.8-0.6C28.5,2.3,28.3,2.6,28.1,2.9z M35.1,1.7
	c0.5,0,1.4,0.1,1.9,0.7c0.4,0.5,0.6,1.2,0.6,2c0,1.2-0.4,2-1,2.5c-0.4,0.3-0.9,0.4-1.4,0.4h-1.3V1.7H35.1z M34.8,2.4v4.1h0.4
	c0.5,0,0.8-0.2,1-0.3c0.5-0.5,0.5-1.3,0.5-1.7c0-1.1-0.3-2-1.5-2H34.8z M41.7,1.7v0.7h-2.2V4h1.8v0.7h-1.8v1.7h2.3v0.7h-3.2V1.7
	H41.7z M46.5,1.7L48,7.2h-0.9l-0.3-1.4h-1.6l-0.3,1.4h-0.9l1.6-5.5H46.5z M46.5,5.1l-0.6-2.5l-0.6,2.5H46.5z M50.2,1.7
	c0.5,0,0.9,0.1,1.2,0.3C51.7,2.2,52,2.6,52,3.3c0,1-0.6,1.3-0.9,1.5l1.1,2.5h-1l-0.9-2.3h-0.9v2.3h-0.9V1.7H50.2z M49.4,2.4v1.8h0.7
	c0.7,0,0.9-0.4,0.9-0.9c0-0.9-0.7-0.9-0.9-0.9H49.4z M55.6,1.7v0.8h-1.2v4.8h-0.9V2.5h-1.2V1.7H55.6z M59.2,1.7v0.7h-2.2V4h1.8v0.7
	h-1.8v1.7h2.3v0.7H56V1.7H59.2z M65.5,5.5c-0.1,0.4-0.3,1.8-1.8,1.8c-1.8,0-2-1.9-2-2.8c0-0.9,0.2-2.9,2-2.9c1.5,0,1.7,1.4,1.8,1.9
	l-0.9,0.1c-0.1-0.5-0.2-1.3-0.9-1.3c-1,0-1.1,1.3-1.1,2.2c0,1,0.2,2.1,1.1,2.1c0.6,0,0.8-0.4,0.9-1.2L65.5,5.5z M70.1,4.4
	c0,1.1-0.3,2.9-2,2.9c-1.7,0-2-1.6-2-2.9c0-1.3,0.3-2.9,2-2.9C69.8,1.6,70.1,3.2,70.1,4.4z M67.3,2.9c-0.2,0.5-0.2,1.2-0.2,1.6
	c0,0.3,0,1.1,0.2,1.5c0.2,0.4,0.4,0.6,0.8,0.6c0.5,0,0.7-0.3,0.8-0.6c0.2-0.5,0.2-1.2,0.2-1.5c0-0.4,0-1.1-0.2-1.6
	c-0.1-0.3-0.3-0.6-0.8-0.6C67.6,2.3,67.4,2.6,67.3,2.9z M72,1.7l1.8,4v-4h0.8v5.5h-0.9l-2-4.4v4.4h-0.8V1.7H72z M78.3,1.7v0.8h-1.2
	v4.8h-0.9V2.5H75V1.7H78.3z M81.9,1.7v0.7h-2.2V4h1.8v0.7h-1.8v1.7h2.3v0.7h-3.2V1.7H81.9z M83.9,1.7l1.1,4l1.1-4h1.3v5.5h-0.9V2.5
	l-1.3,4.7h-0.7l-1.3-4.7v4.7h-0.8V1.7H83.9z M89.9,1.7c0.6,0,1.2,0,1.6,0.5c0.3,0.4,0.4,0.8,0.4,1.2c0,0.4-0.1,1-0.6,1.4
	c-0.4,0.3-1,0.3-1.4,0.3h-0.5v2.2h-0.9V1.7H89.9z M89.4,2.4v1.9h0.5c0.4,0,1.1,0,1.1-1c0-0.2,0-0.4-0.2-0.7
	c-0.2-0.3-0.5-0.3-0.9-0.3H89.4z M96.4,4.4c0,1.1-0.3,2.9-2,2.9c-1.7,0-2-1.6-2-2.9c0-1.3,0.3-2.9,2-2.9C96,1.6,96.4,3.2,96.4,4.4z
	 M93.6,2.9c-0.2,0.5-0.2,1.2-0.2,1.6c0,0.3,0,1.1,0.2,1.5c0.2,0.4,0.4,0.6,0.8,0.6c0.5,0,0.7-0.3,0.8-0.6c0.2-0.5,0.2-1.2,0.2-1.5
	c0-0.4,0-1.1-0.2-1.6c-0.1-0.3-0.3-0.6-0.8-0.6C93.9,2.3,93.7,2.6,93.6,2.9z M98.9,1.7c0.5,0,0.9,0.1,1.2,0.3
	c0.3,0.2,0.6,0.6,0.6,1.3c0,1-0.6,1.3-0.9,1.5l1.1,2.5h-1L99,4.9h-0.9v2.3h-0.9V1.7H98.9z M98.2,2.4v1.8h0.7c0.7,0,0.9-0.4,0.9-0.9
	c0-0.9-0.7-0.9-0.9-0.9H98.2z M103.7,1.7l1.5,5.5h-0.9l-0.3-1.4h-1.6l-0.3,1.4h-0.9l1.6-5.5H103.7z M103.7,5.1l-0.6-2.5l-0.6,2.5
	H103.7z M104.1,0l0.3,0.7l-1.7,0.5l-0.2-0.4L104.1,0z M106.8,1.7l1.8,4v-4h0.8v5.5h-0.9l-2-4.4v4.4h-0.8V1.7H106.8z M113.6,1.7v0.7
	h-2.2V4h1.8v0.7h-1.8v1.7h2.3v0.7h-3.2V1.7H113.6z M118,4.4c0,1.1-0.3,2.9-2,2.9c-1.7,0-2-1.6-2-2.9c0-1.3,0.3-2.9,2-2.9
	C117.7,1.6,118,3.2,118,4.4z M115.2,2.9C115,3.4,115,4.1,115,4.4c0,0.3,0,1.1,0.2,1.5c0.2,0.4,0.4,0.6,0.8,0.6
	c0.5,0,0.7-0.3,0.8-0.6c0.2-0.5,0.2-1.2,0.2-1.5c0-0.4,0-1.1-0.2-1.6c-0.1-0.3-0.3-0.6-0.8-0.6C115.5,2.3,115.3,2.6,115.2,2.9z"/>
</svg>
