<?xml version="1.0" encoding="UTF-8" standalone="no"?>
<svg width="32px" height="32px" viewBox="0 0 32 32" version="1.1" xmlns="http://www.w3.org/2000/svg" xmlns:xlink="http://www.w3.org/1999/xlink" xmlns:sketch="http://www.bohemiancoding.com/sketch/ns">
    <!-- Generator: Sketch 3.3.3 (12072) - http://www.bohemiancoding.com/sketch -->
    <title>buscar-32</title>
    <desc>Created with Sketch.</desc>
    <defs></defs>
    <g id="Page-1" stroke="none" stroke-width="1" fill="none" fill-rule="evenodd" sketch:type="MSPage">
        <g id="buscar-32" sketch:type="MSArtboardGroup" fill="#4A4A4A">
            <path d="M21.4265042,19.4265042 C23.0382025,17.3835737 24,14.8041068 24,12 C24,5.372583 18.627417,0 12,0 C5.372583,0 0,5.372583 0,12 C0,18.627417 5.372583,24 12,24 C14.8041068,24 17.3835737,23.0382025 19.4265042,21.4265042 L22,24 L21.7059121,24.2940879 C21.3160476,24.6839524 21.3189651,25.3189651 21.7097195,25.7097195 L27.2902805,31.2902805 C27.6822478,31.6822478 28.3138733,31.6861267 28.7059121,31.2940879 L31.2940879,28.7059121 C31.6839524,28.3160476 31.6810349,27.6810349 31.2902805,27.2902805 L25.7097195,21.7097195 C25.3177522,21.3177522 24.6861267,21.3138733 24.2940879,21.7059121 L24,22 L21.4265042,19.4265042 Z M12,20 C16.418278,20 20,16.418278 20,12 C20,7.581722 16.418278,4 12,4 C7.581722,4 4,7.581722 4,12 C4,16.418278 7.581722,20 12,20 Z" id="Path" sketch:type="MSShapeGroup"></path>
        </g>
    </g>
</svg>