<?xml version="1.0" encoding="UTF-8" standalone="no"?>
<svg width="20px" height="20px" viewBox="0 0 20 20" version="1.1" xmlns="http://www.w3.org/2000/svg" xmlns:xlink="http://www.w3.org/1999/xlink" xmlns:sketch="http://www.bohemiancoding.com/sketch/ns">
    <!-- Generator: Sketch 3.3.3 (12072) - http://www.bohemiancoding.com/sketch -->
    <title>buscar-20</title>
    <desc>Created with Sketch.</desc>
    <defs></defs>
    <g id="Page-1" stroke="none" stroke-width="1" fill="none" fill-rule="evenodd" sketch:type="MSPage">
        <g id="buscar-20" sketch:type="MSArtboardGroup" fill="#4A4A4A">
            <path d="M16,8 C16,3.581722 12.418278,0 8,0 C3.581722,0 0,3.581722 0,8 C0,12.418278 3.581722,16 8,16 C9.43876295,16 10.788817,15.6201918 11.9553688,14.9553687 L16.2881597,19.2881597 C16.6812983,19.6812983 17.3210526,19.6789475 17.7109582,19.289042 L19.2890419,17.7109582 C19.6816932,17.3183069 19.6774139,16.677414 19.2881596,16.2881597 L14.9553688,11.9553687 C15.6201919,10.7888169 16,9.43876292 16,8 Z M8,13 C10.7614237,13 13,10.7614237 13,8 C13,5.23857625 10.7614237,3 8,3 C5.23857625,3 3,5.23857625 3,8 C3,10.7614237 5.23857625,13 8,13 Z" id="Oval-1-Copy" sketch:type="MSShapeGroup"></path>
        </g>
    </g>
</svg>