<?xml version="1.0" encoding="UTF-8" standalone="no"?>
<svg width="16px" height="16px" viewBox="0 0 16 16" version="1.1" xmlns="http://www.w3.org/2000/svg" xmlns:xlink="http://www.w3.org/1999/xlink" xmlns:sketch="http://www.bohemiancoding.com/sketch/ns">
    <!-- Generator: Sketch 3.3.3 (12072) - http://www.bohemiancoding.com/sketch -->
    <title>buscar-16</title>
    <desc>Created with Sketch.</desc>
    <defs></defs>
    <g id="Page-1" stroke="none" stroke-width="1" fill="none" fill-rule="evenodd" sketch:type="MSPage">
        <g id="buscar-16" sketch:type="MSArtboardGroup" fill="#4A4A4A">
            <path d="M12.3456396,9.34563961 L15.2968749,12.2968751 C15.676371,12.6763712 15.6816931,13.3183069 15.2890418,13.7109582 L13.710958,15.289042 C13.3210524,15.6789475 12.6852001,15.6852003 12.2968749,15.2968751 L9.3456395,12.3456396 C8.48619347,12.7647969 7.52056405,13 6.5,13 C2.91014913,13 0,10.0898509 0,6.5 C0,2.91014913 2.91014913,0 6.5,0 C10.0898509,0 13,2.91014913 13,6.5 C13,7.52056409 12.7647969,8.48619355 12.3456396,9.34563961 L12.3456396,9.34563961 Z M6.5,11 C8.98528137,11 11,8.98528137 11,6.5 C11,4.01471863 8.98528137,2 6.5,2 C4.01471863,2 2,4.01471863 2,6.5 C2,8.98528137 4.01471863,11 6.5,11 Z" id="Path-12-Copy-4" sketch:type="MSShapeGroup"></path>
        </g>
    </g>
</svg>