<?xml version="1.0" encoding="UTF-8" standalone="no"?>
<svg width="12px" height="12px" viewBox="0 0 12 12" version="1.1" xmlns="http://www.w3.org/2000/svg" xmlns:xlink="http://www.w3.org/1999/xlink" xmlns:sketch="http://www.bohemiancoding.com/sketch/ns">
    <!-- Generator: Sketch 3.3.3 (12072) - http://www.bohemiancoding.com/sketch -->
    <title>buscar-12</title>
    <desc>Created with Sketch.</desc>
    <defs></defs>
    <g id="Page-1" stroke="none" stroke-width="1" fill="none" fill-rule="evenodd" sketch:type="MSPage">
        <g id="buscar-12" sketch:type="MSArtboardGroup" fill="#4A4A4A">
            <path d="M9.39186285,7.39186284 C9.77962232,6.68137779 10,5.86642488 10,5 C10,2.23857625 7.76142375,0 5,0 C2.23857625,0 0,2.23857625 0,5 C0,7.76142375 2.23857625,10 5,10 C5.86642488,10 6.68137779,9.77962232 7.39186284,9.39186285 L9.29172277,11.2917228 C9.68289348,11.6828935 10.3125,11.6875 10.7107565,11.2892435 L11.2892434,10.7107565 C11.6817833,10.3182165 11.6770018,9.67700195 11.2917227,9.29172277 L9.39186285,7.39186284 L9.39186285,7.39186284 Z M5,8 C6.65685425,8 8,6.65685425 8,5 C8,3.34314575 6.65685425,2 5,2 C3.34314575,2 2,3.34314575 2,5 C2,6.65685425 3.34314575,8 5,8 Z" id="Path" sketch:type="MSShapeGroup"></path>
        </g>
    </g>
</svg>