<?xml version="1.0" encoding="UTF-8" standalone="no"?>
<svg width="24px" height="24px" viewBox="0 0 24 24" version="1.1" xmlns="http://www.w3.org/2000/svg" xmlns:xlink="http://www.w3.org/1999/xlink" xmlns:sketch="http://www.bohemiancoding.com/sketch/ns">
    <!-- Generator: Sketch 3.3.3 (12072) - http://www.bohemiancoding.com/sketch -->
    <title>buscar-24</title>
    <desc>Created with Sketch.</desc>
    <defs></defs>
    <g id="Page-1" stroke="none" stroke-width="1" fill="none" fill-rule="evenodd" sketch:type="MSPage">
        <g id="buscar-24" sketch:type="MSArtboardGroup" fill="#4A4A4A">
            <path d="M13.4271164,15.4271164 L15,17 L14.7059121,17.2940879 C14.3160476,17.6839524 14.3225861,18.3225861 14.7118404,18.7118404 L19.2881596,23.2881596 C19.6812982,23.6812982 20.3138733,23.6861267 20.7059121,23.2940879 L23.2940879,20.7059121 C23.6839524,20.3160476 23.6774139,19.6774139 23.2881596,19.2881596 L18.7118404,14.7118404 C18.3187018,14.3187018 17.6861267,14.3138733 17.2940879,14.7059121 L17,15 L17,15 L15.4271164,13.4271164 C16.4174802,12.0372494 17,10.3366521 17,8.5 C17,3.80557963 13.1944204,0 8.5,0 C3.80557963,0 0,3.80557963 0,8.5 C0,13.1944204 3.80557963,17 8.5,17 C10.3366521,17 12.0372494,16.4174802 13.4271164,15.4271164 L13.4271164,15.4271164 Z M8.5,14 C11.5375661,14 14,11.5375661 14,8.5 C14,5.46243388 11.5375661,3 8.5,3 C5.46243388,3 3,5.46243388 3,8.5 C3,11.5375661 5.46243388,14 8.5,14 Z" id="Path" sketch:type="MSShapeGroup"></path>
        </g>
    </g>
</svg>