<?xml version="1.0" encoding="UTF-8" standalone="no"?>
<svg width="24px" height="24px" viewBox="0 0 24 24" version="1.1" xmlns="http://www.w3.org/2000/svg" xmlns:xlink="http://www.w3.org/1999/xlink" xmlns:sketch="http://www.bohemiancoding.com/sketch/ns">
    <!-- Generator: Sketch 3.3.3 (12072) - http://www.bohemiancoding.com/sketch -->
    <title>doc-24</title>
    <desc>Created with Sketch.</desc>
    <defs></defs>
    <g id="Page-1" stroke="none" stroke-width="1" fill="none" fill-rule="evenodd" sketch:type="MSPage">
        <g id="doc-24" sketch:type="MSArtboardGroup" fill="#4A4A4A">
            <path d="M3,2.00494659 C3,0.897645164 3.88743329,0 4.99961498,0 L13,0 L13,6.00189865 C13,7.10541955 13.8867064,8 14.9981014,8 L21,8 L21,22.0059397 C21,23.1072288 20.1073772,24 19.0049107,24 L4.99508929,24 C3.8932319,24 3,23.1029738 3,21.9950534 L3,2.00494659 Z M7,10 L18,10 L18,12 L7,12 L7,10 Z M7,14 L15,14 L15,16 L7,16 L7,14 Z M7,18 L17,18 L17,20 L14,20 L7,20 L7,18 Z M15.0303196,6 L15.0303196,-4.16122248e-10 L21,6 L15.0303196,6 Z" id="Rectangle-21-Copy" sketch:type="MSShapeGroup"></path>
        </g>
    </g>
</svg>