<?xml version="1.0" encoding="UTF-8" standalone="no"?>
<svg width="20px" height="20px" viewBox="0 0 20 20" version="1.1" xmlns="http://www.w3.org/2000/svg" xmlns:xlink="http://www.w3.org/1999/xlink" xmlns:sketch="http://www.bohemiancoding.com/sketch/ns">
    <!-- Generator: Sketch 3.3.3 (12072) - http://www.bohemiancoding.com/sketch -->
    <title>doc-20</title>
    <desc>Created with Sketch.</desc>
    <defs></defs>
    <g id="Page-1" stroke="none" stroke-width="1" fill="none" fill-rule="evenodd" sketch:type="MSPage">
        <g id="doc-20" sketch:type="MSArtboardGroup" fill="#4A4A4A">
            <path d="M3,1.99079514 C3,0.891309342 3.89826062,1.26761346e-15 4.99791312,7.80722491e-16 L9,-9.9127361e-16 L9,6.00189865 C9,7.10541955 9.88670635,8 10.9981014,8 L17,8 L17,17.9914698 C17,19.1007504 16.1029399,20 14.9941413,20 L5.00585866,20 C3.89805351,20 3,19.1017876 3,18.0092049 L3,1.99079514 Z M11,6 L11,-4.16150781e-10 L16.9999999,6 L11,6 Z M7,11 L15,11 L15,13 L7,13 L7,11 Z M7,15 L13,15 L13,17 L7,17 L7,15 Z" id="Rectangle-21-Copy-2" sketch:type="MSShapeGroup"></path>
        </g>
    </g>
</svg>