<?xml version="1.0" encoding="UTF-8" standalone="no"?>
<svg width="20px" height="20px" viewBox="0 0 20 20" version="1.1" xmlns="http://www.w3.org/2000/svg" xmlns:xlink="http://www.w3.org/1999/xlink" xmlns:sketch="http://www.bohemiancoding.com/sketch/ns">
    <!-- Generator: Sketch 3.3.3 (12072) - http://www.bohemiancoding.com/sketch -->
    <title>entrar-20</title>
    <desc>Created with Sketch.</desc>
    <defs></defs>
    <g id="Page-1" stroke="none" stroke-width="1" fill="none" fill-rule="evenodd" sketch:type="MSPage">
        <g id="entrar-20" sketch:type="MSArtboardGroup" fill="#4A4A4A">
            <path d="M7.85793906,12.8579391 C7.41997837,12.9510231 6.96570877,13 6.5,13 C2.91014913,13 0,10.0898509 0,6.5 C0,2.91014913 2.91014913,0 6.5,0 C10.0898509,0 13,2.91014913 13,6.5 C13,6.96570877 12.9510231,7.41997837 12.8579391,7.85793906 L20,15 L20,19.0001925 C20,19.5562834 19.5523709,20 19.0001925,20 L15,20 L15,17.9989566 C15,17.4426603 14.5527519,17 14.0010434,17 L12.9989566,17 C12.4426603,17 12,16.5527519 12,16.0010434 L12,14.9989566 C12,14.4426603 11.5527519,14 11.0010434,14 L9,14 L7.85793906,12.8579391 Z M4.5,6 C5.32842712,6 6,5.32842712 6,4.5 C6,3.67157288 5.32842712,3 4.5,3 C3.67157288,3 3,3.67157288 3,4.5 C3,5.32842712 3.67157288,6 4.5,6 Z" id="Oval-12-Copy-2" sketch:type="MSShapeGroup"></path>
        </g>
    </g>
</svg>