<?xml version="1.0" encoding="UTF-8" standalone="no"?>
<svg width="32px" height="32px" viewBox="0 0 32 32" version="1.1" xmlns="http://www.w3.org/2000/svg" xmlns:xlink="http://www.w3.org/1999/xlink" xmlns:sketch="http://www.bohemiancoding.com/sketch/ns">
    <!-- Generator: Sketch 3.3.3 (12072) - http://www.bohemiancoding.com/sketch -->
    <title>entrar-32</title>
    <desc>Created with Sketch.</desc>
    <defs></defs>
    <g id="Page-1" stroke="none" stroke-width="1" fill="none" fill-rule="evenodd" sketch:type="MSPage">
        <g id="entrar-32" sketch:type="MSArtboardGroup" fill="#4A4A4A">
            <path d="M11.8324761,19.8324761 C11.2384122,19.9424936 10.6259217,20 10,20 C4.4771525,20 0,15.5228475 0,10 C0,4.4771525 4.4771525,0 10,0 C15.5228475,0 20,4.4771525 20,10 C20,10.6958092 19.9289349,11.3750203 19.793667,12.0307711 L32,25 L32,30.9970707 C32,31.5621186 31.5509732,32 30.9970707,32 L25,32 L24,31 L24,26.9998075 C24,26.4437166 23.5564136,26 23.009222,26 L18.990778,26 C18.4509752,26 18,25.5523709 18,25.0001925 L18,21.9998075 C18,21.4437166 17.5523709,21 17.0001925,21 L13,21 L11.8324761,19.8324761 Z M6.53333333,9.06666667 C7.9324547,9.06666667 9.06666667,7.9324547 9.06666667,6.53333333 C9.06666667,5.13421197 7.9324547,4 6.53333333,4 C5.13421197,4 4,5.13421197 4,6.53333333 C4,7.9324547 5.13421197,9.06666667 6.53333333,9.06666667 Z" id="Oval-12" sketch:type="MSShapeGroup"></path>
        </g>
    </g>
</svg>