<?xml version="1.0" encoding="UTF-8" standalone="no"?>
<svg width="16px" height="16px" viewBox="0 0 16 16" version="1.1" xmlns="http://www.w3.org/2000/svg" xmlns:xlink="http://www.w3.org/1999/xlink" xmlns:sketch="http://www.bohemiancoding.com/sketch/ns">
    <!-- Generator: Sketch 3.3.3 (12072) - http://www.bohemiancoding.com/sketch -->
    <title>entrar-16</title>
    <desc>Created with Sketch.</desc>
    <defs></defs>
    <g id="Page-1" stroke="none" stroke-width="1" fill="none" fill-rule="evenodd" sketch:type="MSPage">
        <g id="entrar-16" sketch:type="MSArtboardGroup" fill="#4A4A4A">
            <path d="M5.91623804,9.91623804 C5.61920608,9.97124682 5.31296087,10 5,10 C2.23857625,10 0,7.76142375 0,5 C0,2.23857625 2.23857625,0 5,0 C7.76142375,0 10,2.23857625 10,5 C10,5.31296087 9.97124682,5.61920608 9.91623804,5.91623804 L16,12 L16,14.9906311 C16,15.5566468 15.5480902,16 14.9906311,16 L12,16 L11,15 L11,14 C11,13.4438648 10.5522847,13 10,13 C9.44386482,13 9,12.5522847 9,12 C9,11.4438648 8.55228475,11 8,11 L7,11 L5.91623804,9.91623804 Z M3.33333333,4.44444444 C3.94698306,4.44444444 4.44444444,3.94698306 4.44444444,3.33333333 C4.44444444,2.71968361 3.94698306,2.22222222 3.33333333,2.22222222 C2.71968361,2.22222222 2.22222222,2.71968361 2.22222222,3.33333333 C2.22222222,3.94698306 2.71968361,4.44444444 3.33333333,4.44444444 Z" id="Oval-12-Copy-3" sketch:type="MSShapeGroup"></path>
        </g>
    </g>
</svg>