<?xml version="1.0" encoding="UTF-8" standalone="no"?>
<svg width="24px" height="24px" viewBox="0 0 24 24" version="1.1" xmlns="http://www.w3.org/2000/svg" xmlns:xlink="http://www.w3.org/1999/xlink" xmlns:sketch="http://www.bohemiancoding.com/sketch/ns">
    <!-- Generator: Sketch 3.3.3 (12072) - http://www.bohemiancoding.com/sketch -->
    <title>entrar-24</title>
    <desc>Created with Sketch.</desc>
    <defs></defs>
    <g id="Page-1" stroke="none" stroke-width="1" fill="none" fill-rule="evenodd" sketch:type="MSPage">
        <g id="entrar-24" sketch:type="MSArtboardGroup" fill="#4A4A4A">
            <path d="M9.79730609,15.7973061 C9.21957693,15.9299316 8.61797114,16 8,16 C3.581722,16 0,12.418278 0,8 C0,3.581722 3.581722,0 8,0 C12.418278,0 16,3.581722 16,8 C16,8.68997492 15.9126521,9.35954864 15.748411,9.99826653 L24,19 L24,23.0001925 C24,23.5562834 23.5564136,24 23.009222,24 L18,24 L17,23 L17,20.9989566 C17,20.4426603 16.5527519,20 16.0010434,20 L14.9989566,20 C14.4426603,20 14,19.5527519 14,19.0010434 L14,17.9989566 C14,17.4426603 13.5527519,17 13.0010434,17 L11,17 L9.79730609,15.7973061 Z M5.15789474,7.15789474 C6.26246424,7.15789474 7.15789474,6.26246424 7.15789474,5.15789474 C7.15789474,4.05332524 6.26246424,3.15789474 5.15789474,3.15789474 C4.05332524,3.15789474 3.15789474,4.05332524 3.15789474,5.15789474 C3.15789474,6.26246424 4.05332524,7.15789474 5.15789474,7.15789474 Z" id="Oval-12-Copy" sketch:type="MSShapeGroup"></path>
        </g>
    </g>
</svg>