<?xml version="1.0" encoding="UTF-8" standalone="no"?>
<svg width="12px" height="12px" viewBox="0 0 12 12" version="1.1" xmlns="http://www.w3.org/2000/svg" xmlns:xlink="http://www.w3.org/1999/xlink" xmlns:sketch="http://www.bohemiancoding.com/sketch/ns">
    <!-- Generator: Sketch 3.3.3 (12072) - http://www.bohemiancoding.com/sketch -->
    <title>facebook-12</title>
    <desc>Created with Sketch.</desc>
    <defs></defs>
    <g id="Page-1" stroke="none" stroke-width="1" fill="none" fill-rule="evenodd" sketch:type="MSPage">
        <g id="facebook-12" sketch:type="MSArtboardGroup" fill="#4A4A4A">
            <path d="M0.0126342773,1.00247329 C0.0126342773,0.448822582 0.468395233,-2.72848411e-12 1.01510757,-2.72848411e-12 L11.010161,-2.72848411e-12 C11.5638117,-2.72848411e-12 12.0126343,0.455760956 12.0126343,1.00247329 L12.0126343,10.9975267 C12.0126343,11.5511774 11.5568733,12 11.010161,12 L1.01510757,12 C0.461456859,12 0.0126342773,11.544239 0.0126342773,10.9975267 L0.0126342773,1.00247329 Z M7.99999986,5 C7.99999927,5.99999981 8.82655261,5.99427971 8.99999986,6 C9.46191298,6.01470931 9.97732301,6 9.99999986,6 L9.99999986,7 L8.99999986,7 C8.99999986,7 7.99999977,6.99999981 8,8 C8.00000023,9.00000019 8,12 8,12 L6.0000001,12 C6.0000001,12 6.00000019,9.00000019 6.0000001,8 C6.00000001,6.99999981 4.99999998,7 4.99999998,7 L4.00000001,7 L4.00000001,6 L5.00000001,6 C5.00000001,6 6.00000001,5.99999981 6.00000001,5 C6.00000001,4.37254887 6.17517091,3.95458982 6.52105714,3.55096433 C6.90747048,3.10004648 7.30092136,3.02973971 8.00000001,3 C8.95124894,2.95953264 9.69495348,3.28429095 10.1894531,3.76361083 C10.1894531,3.76361083 9.44184078,4.64230638 9.4105835,4.74731449 C9.13415528,4.56115726 8.85546876,4.29290775 8.47595216,4.4105225 C8.16627943,4.50649216 8.00000001,4.74731449 7.99999986,5 Z" id="Path-Copy" sketch:type="MSShapeGroup"></path>
        </g>
    </g>
</svg>