<?xml version="1.0" encoding="UTF-8" standalone="no"?>
<svg width="20px" height="20px" viewBox="0 0 20 20" version="1.1" xmlns="http://www.w3.org/2000/svg" xmlns:xlink="http://www.w3.org/1999/xlink" xmlns:sketch="http://www.bohemiancoding.com/sketch/ns">
    <!-- Generator: Sketch 3.3.3 (12072) - http://www.bohemiancoding.com/sketch -->
    <title>facebook-20</title>
    <desc>Created with Sketch.</desc>
    <defs></defs>
    <g id="Page-1" stroke="none" stroke-width="1" fill="none" fill-rule="evenodd" sketch:type="MSPage">
        <g id="facebook-20" sketch:type="MSArtboardGroup" fill="#4A4A4A">
            <path d="M0,1.99079514 C0,0.891309342 0.898212381,0 1.99079514,0 L18.0092049,0 C19.1086907,0 20,0.898212381 20,1.99079514 L20,18.0092049 C20,19.1086907 19.1017876,20 18.0092049,20 L1.99079514,20 C0.891309342,20 0,19.1017876 0,18.0092049 L0,1.99079514 Z M13,7 C13,8 13.7893857,7.99305394 14.0000002,8 C14.5608947,8.0178613 14.972464,8 15.0000002,8 L15.0000002,10 L14.0000002,10 C14.0000002,10 13,10.2089684 13,11 C13,11.674106 13.0000002,20 13.0000002,20 L9.99999994,20 C9.99999994,20 9.99999987,12 9.99999994,11 C10,10 9.00000006,10 9.00000006,10 L8,10 L8,8 L9.00000006,8 C9.00000006,8 10.0000013,7.85714268 10,7 C9.9999987,6.23809506 10,5.26513672 10.4570312,4.41656491 C11.0888603,3.24344537 12.6146476,2.99999609 13.1243384,3 C14.2798406,3.00000885 15.3869019,3.40185547 15.9873657,3.98388675 C15.9873657,3.98388675 15.0379553,5.47875236 15,5.60626221 C14.4635085,5.33999719 13.6653442,5.35357666 13.3493652,5.69500732 C13.0333862,6.03643799 13,6.53907918 13,7 Z" id="Rectangle-36-Copy-2" sketch:type="MSShapeGroup"></path>
        </g>
    </g>
</svg>