<?xml version="1.0" encoding="UTF-8" standalone="no"?>
<svg width="16px" height="16px" viewBox="0 0 16 16" version="1.1" xmlns="http://www.w3.org/2000/svg" xmlns:xlink="http://www.w3.org/1999/xlink" xmlns:sketch="http://www.bohemiancoding.com/sketch/ns">
    <!-- Generator: Sketch 3.3.3 (12072) - http://www.bohemiancoding.com/sketch -->
    <title>facebook-16</title>
    <desc>Created with Sketch.</desc>
    <defs></defs>
    <g id="Page-1" stroke="none" stroke-width="1" fill="none" fill-rule="evenodd" sketch:type="MSPage">
        <g id="facebook-16" sketch:type="MSArtboardGroup" fill="#4A4A4A">
            <path d="M10.0000001,16 L14.9872844,16 C15.543086,16 15.9873657,15.5518945 15.9873657,14.9991283 L15.9873657,1.00087166 C15.9873657,0.444630861 15.5396141,0 14.9872844,0 L1.00008133,0 C0.444279762,0 0,0.448105505 0,1.00087166 L0,14.9991283 C0,15.5553691 0.447751662,16 1.00008133,16 L6.9999999,16 C6.99999991,13.8390219 6.99999991,11.5098164 6.99999994,11 C7,10 6.00000006,10 6.00000006,10 L5,10 L5,8 L6.00000006,8 C6.00000006,8 7.0000013,7.85714268 7,7 C6.9999987,6.23809506 7,5.26513672 7.45703125,4.41656491 C8.08886027,3.24344537 9.61464758,2.99999609 10.1243384,3 C11.2798406,3.00000885 12.3869019,3.40185547 12.9873657,3.98388675 C12.9873657,3.98388675 12.0379553,5.47875236 12,5.60626221 C11.4635085,5.33999719 10.6653442,5.35357666 10.3493652,5.69500732 C10.0333862,6.03643799 10,6.53907918 10,7 C10,8 10.7893857,7.99305394 11.0000002,8 C11.5608947,8.0178613 11.972464,8 12.0000002,8 L12.0000002,10 L11.0000002,10 C11.0000002,10 10,10.2089684 10,11 C10,11.3499022 10,13.7613832 10.0000001,16 Z" id="Path" sketch:type="MSShapeGroup"></path>
        </g>
    </g>
</svg>