<?xml version="1.0" encoding="UTF-8" standalone="no"?>
<svg width="24px" height="24px" viewBox="0 0 24 24" version="1.1" xmlns="http://www.w3.org/2000/svg" xmlns:xlink="http://www.w3.org/1999/xlink" xmlns:sketch="http://www.bohemiancoding.com/sketch/ns">
    <!-- Generator: Sketch 3.3.3 (12072) - http://www.bohemiancoding.com/sketch -->
    <title>facebook-24</title>
    <desc>Created with Sketch.</desc>
    <defs></defs>
    <g id="Page-1" stroke="none" stroke-width="1" fill="none" fill-rule="evenodd" sketch:type="MSPage">
        <g id="facebook-24" sketch:type="MSArtboardGroup" fill="#4A4A4A">
            <path d="M15.9999998,24 L21.9950534,24 C23.1029738,24 24,23.1023548 24,21.9950534 L24,2.00494659 C24,0.897026226 23.1023548,0 21.9950534,0 L2.00494659,0 C0.897026226,0 0,0.897645164 0,2.00494659 L0,21.9950534 C0,23.1029738 0.897645164,24 2.00494659,24 L12.0067888,24 C12.0233034,21.428753 12.0599945,14.7354581 12,13.9771566 C11.9255455,13.0360873 11.0505974,13 11.0505974,13 L8.99999999,13 L8.99999999,10 L11.0505974,10 C11.0505974,10 12.0000017,10 12.0000001,9 C11.9999984,8 12.017282,6.79099607 12.7240765,5.74481225 C13.8200845,4.12252202 15.8698704,3.99999518 16.4994885,4 C17.9268735,4.00001094 19.1696817,4.46418254 20.0599012,4.76572335 C20.052853,4.91802597 18.6369118,7.46279528 18.5900259,7.62030745 C17.9273011,7.29139184 17,6.96167016 16.4994883,7.4464705 C15.9989767,7.93127084 16,8.43062722 16,9 C16,9.57582799 16.7398291,9.99141957 17,10 C17.6928697,10.022064 18.9350721,10 18.9690874,10 L18.9690876,13 C18.7199487,12.9981613 17,13 17,13 C17,13 16,13 16,13.9771566 C16,14.6490052 15.9999999,21.4120285 15.9999998,24.0000124 L15.9999998,24 Z" id="Rectangle-36-Copy" sketch:type="MSShapeGroup"></path>
        </g>
    </g>
</svg>