<?xml version="1.0" encoding="UTF-8" standalone="no"?>
<svg width="32px" height="32px" viewBox="0 0 32 32" version="1.1" xmlns="http://www.w3.org/2000/svg" xmlns:xlink="http://www.w3.org/1999/xlink" xmlns:sketch="http://www.bohemiancoding.com/sketch/ns">
    <!-- Generator: Sketch 3.3.3 (12072) - http://www.bohemiancoding.com/sketch -->
    <title>facebook-32</title>
    <desc>Created with Sketch.</desc>
    <defs></defs>
    <g id="Page-1" stroke="none" stroke-width="1" fill="none" fill-rule="evenodd" sketch:type="MSPage">
        <g id="facebook-32" sketch:type="MSArtboardGroup" fill="#4A4A4A">
            <path d="M19.9821235,32 L29.9982567,32 C31.1107383,32 32,31.103789 32,29.9982567 L32,2.00174332 C32,0.889261723 31.103789,0 29.9982567,0 L2.00174332,0 C0.889261723,0 0,0.89621101 0,2.00174332 L0,29.9982567 C0,31.1107383 0.89621101,32 2.00174332,32 L15.0020384,32 C15.0049959,28.7140012 15,18.5610594 15,17.9854129 C15,17.3191532 14.6513672,17.0068401 14,17.0068401 C13.1522799,17.0068401 12,17.0068398 12,17.0068398 L12,13.8778892 C12,13.8778892 13.5043597,13.9066276 14,13.8778892 C14.3243905,13.8593863 15,13.8755698 15,13 C15,11.6814004 14.9651921,10.6466037 15.626508,8.9052709 C16.043779,7.80654086 17.1406381,6.9259846 17.7051721,6.59686997 C18.6318209,6.05742687 20.1911516,5.99919507 21,5.99920127 C22.8337116,5.99921532 24.338849,6.61451312 25.4824829,7.00189206 C25.4734283,7.19754992 24.2328401,10.4319268 24.1726074,10.6342772 C23.321228,10.2117308 21.5257216,9.86600908 20.5688124,10.5530208 C19.8054591,11.1010693 19.9831495,12.2685465 19.9831495,12.9999998 C19.9831495,13.7397459 20.6657676,13.988977 21,14 C21.8901055,14.0283448 23.9563018,14 24,14 L24,17.0068398 C23.67994,17.0044777 21.5168457,17.0068394 21,17.0068398 C20.4831543,17.0068401 19.9831495,17.4365848 19.9831495,17.9854129 C19.9831495,18.8941973 19.9808767,28.8065687 19.9821235,32 Z" id="Rectangle-36" sketch:type="MSShapeGroup"></path>
        </g>
    </g>
</svg>