<?xml version="1.0" encoding="UTF-8" standalone="no"?>
<svg width="157px" height="60px" viewBox="0 0 157 60" version="1.1" xmlns="http://www.w3.org/2000/svg" xmlns:xlink="http://www.w3.org/1999/xlink" xmlns:sketch="http://www.bohemiancoding.com/sketch/ns">
    <!-- Generator: Sketch 3.3.3 (12072) - http://www.bohemiancoding.com/sketch -->
    <title>logo</title>
    <desc>Created with Sketch.</desc>
    <defs></defs>
    <g id="Page-1" stroke="none" stroke-width="1" fill="none" fill-rule="evenodd" sketch:type="MSPage">
        <g id="logo" sketch:type="MSArtboardGroup" fill="#000000">
            <path d="M150.805762,11.1466872 C136.293281,6.15948371 117.302876,3.25885879 96.9196366,2.88057452 C106.947511,4.3081632 116.158666,6.41479217 124.069219,9.13362678 C140.114888,14.6474875 148.950432,22.0754934 148.950432,30.0488702 C148.950432,38.0235837 140.114888,45.4515896 124.069219,50.9654503 C116.158666,53.6829482 106.947511,55.7909139 96.9196366,57.2171659 C117.302876,56.8402183 136.293281,53.9395934 150.805762,48.9523899 C153.01398,48.193148 155.077835,47.3951419 157,46.5650553 L157,49.6768778 C141.574557,56.0916699 118.528624,60.0977404 92.356165,60.0977404 C85.4053587,60.0977404 78.6764435,59.8143614 72.2509578,59.2783473 C69.8288692,59.3505287 67.3867301,59.3892928 64.9285508,59.3892928 C42.5977489,59.3892928 21.5942837,56.3977727 5.78654622,50.9654503 C3.73873176,50.2610128 1.80988302,49.5258314 0,48.7625794 L0,47.2227085 C1.93553221,48.0541318 4.01676401,48.8561479 6.24770548,49.62341 C20.7735539,54.6146236 39.7505917,57.5246054 60.1177908,57.9216034 C29.0410033,53.5091781 7.6244998,42.8303336 7.6244998,30.0488702 C7.6244998,17.2687435 29.0410033,6.58989902 60.1177908,2.17747373 C39.7505917,2.57313501 20.7735539,5.48311679 6.24770548,10.4756671 C4.01676401,11.2415925 1.93553221,12.0436086 0,12.8750319 L0,11.3364977 C1.80988302,10.5732457 3.73873176,9.83806426 5.78654622,9.13362678 C21.5942837,3.70130434 42.5977489,0.709784256 64.9285508,0.709784256 C67.3867301,0.709784256 69.8288692,0.748548368 72.2509578,0.819393124 C78.6764435,0.284715718 85.4053587,0 92.356165,0 C118.528624,0 141.574557,4.00607046 157,10.4208626 L157,13.5340218 C155.077835,12.7039352 153.01398,11.9045924 150.805762,11.1466872 Z M84.8787014,2.95275597 C65.603581,3.54090112 47.7239685,6.39741516 33.905231,11.1466872 C19.0064451,16.2662234 10.4609634,23.1555417 10.4609634,30.0488702 C10.4609634,36.9421986 19.0064451,43.8328537 33.905231,48.9523899 C47.7239685,53.7016619 65.603581,56.5568393 84.8787014,57.1449844 C99.4219269,55.9192365 112.758118,53.3514482 123.609396,49.62341 C139.036176,44.3220835 147.5322,37.3699406 147.5322,30.0488702 C147.5322,22.7277998 139.036176,15.7769935 123.609396,10.4756671 C112.758118,6.74629217 99.4219269,4.17984062 84.8787014,2.95275597 Z M78,14 L81,14 L81,46 L78,46 L78,14 Z" id="Imported-Layers" sketch:type="MSShapeGroup"></path>
        </g>
    </g>
</svg>