<?xml version="1.0" encoding="UTF-8" standalone="no"?>
<svg width="20px" height="20px" viewBox="0 0 20 20" version="1.1" xmlns="http://www.w3.org/2000/svg" xmlns:xlink="http://www.w3.org/1999/xlink" xmlns:sketch="http://www.bohemiancoding.com/sketch/ns">
    <!-- Generator: Sketch 3.3.3 (12072) - http://www.bohemiancoding.com/sketch -->
    <title>mas-20</title>
    <desc>Created with Sketch.</desc>
    <defs></defs>
    <g id="Page-1" stroke="none" stroke-width="1" fill="none" fill-rule="evenodd" sketch:type="MSPage">
        <g id="mas-20" sketch:type="MSArtboardGroup" fill="#4A4A4A">
            <path d="M12,2.99077797 C12,2.44358641 11.5566468,2 10.9906311,2 L9.0093689,2 C8.45190985,2 8,2.45097518 8,2.99077797 L8,7.00922203 C8,7.55641359 7.54902482,8 7.00922203,8 L2.99077797,8 C2.44358641,8 2,8.44335318 2,9.0093689 L2,10.9906311 C2,11.5480902 2.45097518,12 2.99077797,12 L7.00922203,12 C7.55641359,12 8,12.4509752 8,12.990778 L8,17.009222 C8,17.5564136 8.44335318,18 9.0093689,18 L10.9906311,18 C11.5480902,18 12,17.5490248 12,17.009222 L12,12.990778 C12,12.4435864 12.4509752,12 12.990778,12 L17.009222,12 C17.5564136,12 18,11.5566468 18,10.9906311 L18,9.0093689 C18,8.45190985 17.5490248,8 17.009222,8 L12.990778,8 C12.4435864,8 12,7.54902482 12,7.00922203 L12,2.99077797 Z" id="Rectangle-55-Copy-4" sketch:type="MSShapeGroup"></path>
        </g>
    </g>
</svg>