<?xml version="1.0" encoding="UTF-8" standalone="no"?>
<svg width="24px" height="24px" viewBox="0 0 24 24" version="1.1" xmlns="http://www.w3.org/2000/svg" xmlns:xlink="http://www.w3.org/1999/xlink" xmlns:sketch="http://www.bohemiancoding.com/sketch/ns">
    <!-- Generator: Sketch 3.3.3 (12072) - http://www.bohemiancoding.com/sketch -->
    <title>mas-24</title>
    <desc>Created with Sketch.</desc>
    <defs></defs>
    <g id="Page-1" stroke="none" stroke-width="1" fill="none" fill-rule="evenodd" sketch:type="MSPage">
        <g id="mas-24" sketch:type="MSArtboardGroup" fill="#4A4A4A">
            <path d="M14,4.00292933 C14,3.44902676 13.5566468,3 12.9906311,3 L11.0093689,3 C10.4519098,3 10,3.43788135 10,4.00292933 L10,8.99707067 C10,9.55097324 9.56211865,10 8.99707067,10 L4.00292933,10 C3.44902676,10 3,10.4433532 3,11.0093689 L3,12.9906311 C3,13.5480902 3.43788135,14 4.00292933,14 L8.99707067,14 C9.55097324,14 10,14.4378814 10,15.0029293 L10,19.9970707 C10,20.5509732 10.4433532,21 11.0093689,21 L12.9906311,21 C13.5480902,21 14,20.5621186 14,19.9970707 L14,15.0029293 C14,14.4490268 14.4378814,14 15.0029293,14 L19.9970707,14 C20.5509732,14 21,13.5566468 21,12.9906311 L21,11.0093689 C21,10.4519098 20.5621186,10 19.9970707,10 L15.0029293,10 C14.4490268,10 14,9.56211865 14,8.99707067 L14,4.00292933 Z" id="Rectangle-55-Copy-2" sketch:type="MSShapeGroup"></path>
        </g>
    </g>
</svg>