<?xml version="1.0" encoding="UTF-8" standalone="no"?>
<svg width="32px" height="32px" viewBox="0 0 32 32" version="1.1" xmlns="http://www.w3.org/2000/svg" xmlns:xlink="http://www.w3.org/1999/xlink" xmlns:sketch="http://www.bohemiancoding.com/sketch/ns">
    <!-- Generator: Sketch 3.3.3 (12072) - http://www.bohemiancoding.com/sketch -->
    <title>mas-32</title>
    <desc>Created with Sketch.</desc>
    <defs></defs>
    <g id="Page-1" stroke="none" stroke-width="1" fill="none" fill-rule="evenodd" sketch:type="MSPage">
        <g id="mas-32" sketch:type="MSArtboardGroup" fill="#4A4A4A">
            <path d="M19,4.99961498 C19,3.89525812 18.1017394,3 17.0020869,3 L14.9979131,3 C13.8944962,3 13,3.88743329 13,4.99961498 L13,11.000385 C13,12.1047419 12.1125667,13 11.000385,13 L4.99961498,13 C3.89525812,13 3,13.8982606 3,14.9979131 L3,17.0020869 C3,18.1055038 3.88743329,19 4.99961498,19 L11.000385,19 C12.1047419,19 13,19.8874333 13,20.999615 L13,27.000385 C13,28.1047419 13.8982606,29 14.9979131,29 L17.0020869,29 C18.1055038,29 19,28.1125667 19,27.000385 L19,20.999615 C19,19.8952581 19.8874333,19 20.999615,19 L27.000385,19 C28.1047419,19 29,18.1017394 29,17.0020869 L29,14.9979131 C29,13.8944962 28.1125667,13 27.000385,13 L20.999615,13 C19.8952581,13 19,12.1125667 19,11.000385 L19,4.99961498 Z" id="Rectangle-55" sketch:type="MSShapeGroup"></path>
        </g>
    </g>
</svg>