<?xml version="1.0" encoding="UTF-8" standalone="no"?>
<svg width="16px" height="16px" viewBox="0 0 16 16" version="1.1" xmlns="http://www.w3.org/2000/svg" xmlns:xlink="http://www.w3.org/1999/xlink" xmlns:sketch="http://www.bohemiancoding.com/sketch/ns">
    <!-- Generator: Sketch 3.3.3 (12072) - http://www.bohemiancoding.com/sketch -->
    <title>mas-16</title>
    <desc>Created with Sketch.</desc>
    <defs></defs>
    <g id="Page-1" stroke="none" stroke-width="1" fill="none" fill-rule="evenodd" sketch:type="MSPage">
        <g id="mas-16" sketch:type="MSArtboardGroup" fill="#4A4A4A">
            <path d="M10,1.99980749 C10,1.44762906 9.55664682,1 8.9906311,1 L7.0093689,1 C6.45190985,1 6,1.44371665 6,1.99980749 L6,5.00019251 C6,5.55237094 5.55628335,6 5.00019251,6 L1.99980749,6 C1.44762906,6 1,6.44335318 1,7.0093689 L1,8.9906311 C1,9.54809015 1.44371665,10 1.99980749,10 L5.00019251,10 C5.55237094,10 6,10.4437166 6,10.9998075 L6,14.0001925 C6,14.5523709 6.44335318,15 7.0093689,15 L8.9906311,15 C9.54809015,15 10,14.5562834 10,14.0001925 L10,10.9998075 C10,10.4476291 10.4437166,10 10.9998075,10 L14.0001925,10 C14.5523709,10 15,9.55664682 15,8.9906311 L15,7.0093689 C15,6.45190985 14.5562834,6 14.0001925,6 L10.9998075,6 C10.4476291,6 10,5.55628335 10,5.00019251 L10,1.99980749 Z" id="Rectangle-55-Copy-6" sketch:type="MSShapeGroup"></path>
        </g>
    </g>
</svg>