<?xml version="1.0" encoding="UTF-8" standalone="no"?>
<svg width="12px" height="12px" viewBox="0 0 12 12" version="1.1" xmlns="http://www.w3.org/2000/svg" xmlns:xlink="http://www.w3.org/1999/xlink" xmlns:sketch="http://www.bohemiancoding.com/sketch/ns">
    <!-- Generator: Sketch 3.3.3 (12072) - http://www.bohemiancoding.com/sketch -->
    <title>no-12</title>
    <desc>Created with Sketch.</desc>
    <defs></defs>
    <g id="Page-1" stroke="none" stroke-width="1" fill="none" fill-rule="evenodd" sketch:type="MSPage">
        <g id="no-12" sketch:type="MSArtboardGroup" fill="#4A4A4A">
            <path d="M11.2968194,2.70318058 C11.6897542,2.31024575 11.6817835,1.68178346 11.2892435,1.28924346 L10.7107565,0.71075654 C10.3125,0.3125 9.68517533,0.31482467 9.29681942,0.703180581 L6.70725048,3.29274952 C6.31664682,3.68335318 5.68388709,3.68388709 5.29274952,3.29274952 L2.70318058,0.703180581 C2.31024575,0.310245752 1.68178346,0.318216542 1.28924346,0.71075654 L0.71075654,1.28924346 C0.3125,1.6875 0.31482467,2.31482467 0.703180581,2.70318058 L3.29274952,5.29274952 C3.68335318,5.68335318 3.68388709,6.31611291 3.29274952,6.70725048 L0.703180581,9.29681942 C0.310245752,9.68975425 0.318216542,10.3182165 0.71075654,10.7107565 L1.28924346,11.2892435 C1.6875,11.6875 2.31482467,11.6851753 2.70318058,11.2968194 L5.29274952,8.70725048 C5.68335318,8.31664682 6.31611291,8.31611291 6.70725048,8.70725048 L9.29681942,11.2968194 C9.68975425,11.6897542 10.3182165,11.6817835 10.7107565,11.2892435 L11.2892435,10.7107565 C11.6875,10.3125 11.6851753,9.68517533 11.2968194,9.29681942 L8.70725048,6.70725048 C8.31664682,6.31664682 8.31611291,5.68388709 8.70725048,5.29274952 L11.2968194,2.70318058 Z" id="Rectangle-35" sketch:type="MSShapeGroup"></path>
        </g>
    </g>
</svg>