<?xml version="1.0" encoding="UTF-8" standalone="no"?>
<svg width="16px" height="16px" viewBox="0 0 16 16" version="1.1" xmlns="http://www.w3.org/2000/svg" xmlns:xlink="http://www.w3.org/1999/xlink" xmlns:sketch="http://www.bohemiancoding.com/sketch/ns">
    <!-- Generator: Sketch 3.3.3 (12072) - http://www.bohemiancoding.com/sketch -->
    <title>no-16</title>
    <desc>Created with Sketch.</desc>
    <defs></defs>
    <g id="Page-1" stroke="none" stroke-width="1" fill="none" fill-rule="evenodd" sketch:type="MSPage">
        <g id="no-16" sketch:type="MSArtboardGroup" fill="#4A4A4A">
            <path d="M12.2918316,15.2918314 C12.67865,15.6786498 13.3183069,15.6816931 13.7109582,15.2890418 L15.2890419,13.7109581 C15.6789475,13.3210525 15.6829422,12.6829422 15.2918315,12.2918315 L11.7087087,8.70870875 C11.3172998,8.31729976 11.322585,7.67741516 11.7087088,7.29129138 L15.2918317,3.70816844 C15.6786501,3.32135003 15.6816934,2.68169321 15.289042,2.28904195 L13.710958,0.71095849 C13.3210524,0.321052991 12.682942,0.317058326 12.2918314,0.708168976 L8.7087088,4.29129155 C8.31729983,4.68270053 7.67741526,4.67741528 7.2912915,4.29129152 L3.70816872,0.708168749 C3.32135032,0.321350342 2.68169349,0.318307085 2.28904223,0.710958464 L0.710958774,2.28904242 C0.321053275,2.67894804 0.31705861,3.31705845 0.708169259,3.7081691 L4.29129168,7.2912915 C4.68270063,7.68270045 4.67741539,8.32258499 4.29129164,8.70870874 L0.708169048,12.2918314 C0.321350656,12.6786498 0.318307358,13.3183066 0.710958672,13.7109579 L2.28904236,15.2890416 C2.67894792,15.6789472 3.3170583,15.6829419 3.70816896,15.2918312 L7.29129155,11.7087086 C7.68270052,11.3172996 8.32258509,11.3225849 8.70870886,11.7087087 L12.2918316,15.2918314 Z" id="Rectangle-35-Copy-5" sketch:type="MSShapeGroup"></path>
        </g>
    </g>
</svg>