<?xml version="1.0" encoding="UTF-8" standalone="no"?>
<svg width="24px" height="24px" viewBox="0 0 24 24" version="1.1" xmlns="http://www.w3.org/2000/svg" xmlns:xlink="http://www.w3.org/1999/xlink" xmlns:sketch="http://www.bohemiancoding.com/sketch/ns">
    <!-- Generator: Sketch 3.3.3 (12072) - http://www.bohemiancoding.com/sketch -->
    <title>no-24</title>
    <desc>Created with Sketch.</desc>
    <defs></defs>
    <g id="Page-1" stroke="none" stroke-width="1" fill="none" fill-rule="evenodd" sketch:type="MSPage">
        <g id="no-24" sketch:type="MSArtboardGroup" fill="#4A4A4A">
            <path d="M23.2881894,4.71181059 C23.6858478,4.31415224 23.6839524,3.68395241 23.2940879,3.29408795 L20.7059121,0.705912054 C20.3138733,0.313873291 19.6813115,0.318688456 19.2881894,0.711810589 L12.7120923,7.28790773 C12.3188146,7.68118543 11.6868356,7.68683561 11.2879077,7.28790773 L4.71181059,0.711810589 C4.31415224,0.314152241 3.68395241,0.316047592 3.29408795,0.705912054 L0.705912054,3.29408795 C0.313873291,3.68612671 0.318688456,4.31868846 0.711810589,4.71181059 L7.28790773,11.2879077 C7.68118543,11.6811854 7.68683561,12.3131644 7.28790773,12.7120923 L0.711810589,19.2881894 C0.314152241,19.6858478 0.316047592,20.3160476 0.705912054,20.7059121 L3.29408795,23.2940879 C3.68612671,23.6861267 4.31868846,23.6813115 4.71181059,23.2881894 L11.2879077,16.7120923 C11.6811854,16.3188146 12.3131644,16.3131644 12.7120923,16.7120923 L19.2881894,23.2881894 C19.6858478,23.6858478 20.3160476,23.6839524 20.7059121,23.2940879 L23.2940879,20.7059121 C23.6861267,20.3138733 23.6813115,19.6813115 23.2881894,19.2881894 L16.7120923,12.7120923 C16.3188146,12.3188146 16.3131644,11.6868356 16.7120923,11.2879077 L23.2881894,4.71181059 Z" id="Rectangle-35" sketch:type="MSShapeGroup"></path>
        </g>
    </g>
</svg>