<?xml version="1.0" encoding="UTF-8" standalone="no"?>
<svg width="20px" height="20px" viewBox="0 0 20 20" version="1.1" xmlns="http://www.w3.org/2000/svg" xmlns:xlink="http://www.w3.org/1999/xlink" xmlns:sketch="http://www.bohemiancoding.com/sketch/ns">
    <!-- Generator: Sketch 3.3.3 (12072) - http://www.bohemiancoding.com/sketch -->
    <title>no-20</title>
    <desc>Created with Sketch.</desc>
    <defs></defs>
    <g id="Page-1" stroke="none" stroke-width="1" fill="none" fill-rule="evenodd" sketch:type="MSPage">
        <g id="no-20" sketch:type="MSArtboardGroup" fill="#4A4A4A">
            <path d="M16.2911746,19.2911746 C16.6904212,19.6904212 17.3183068,19.6816932 17.7109581,19.2890419 L19.2890419,17.7109581 C19.6789474,17.3210526 19.6826481,16.6826481 19.2911746,16.2911746 L13.7094485,10.7094485 C13.3176309,10.3176309 13.3206294,9.67937059 13.7094485,9.29055151 L19.2911746,3.70882536 C19.6904212,3.30957876 19.6816932,2.68169321 19.2890419,2.28904188 L17.7109581,0.710958123 C17.3210526,0.321052551 16.6826481,0.317351926 16.2911746,0.708825365 L10.7094485,6.29055151 C10.3176309,6.68236909 9.67937059,6.67937059 9.29055151,6.29055151 L3.70882536,0.708825365 C3.30957876,0.309578761 2.68169321,0.318306794 2.28904188,0.710958123 L0.710958123,2.28904188 C0.321052551,2.67894745 0.317351926,3.31735193 0.708825365,3.70882536 L6.29055151,9.29055151 C6.68236909,9.68236909 6.67937059,10.3206294 6.29055151,10.7094485 L0.708825365,16.2911746 C0.309578761,16.6904212 0.318306794,17.3183068 0.710958123,17.7109581 L2.28904188,19.2890419 C2.67894745,19.6789474 3.31735193,19.6826481 3.70882536,19.2911746 L9.29055151,13.7094485 C9.68236909,13.3176309 10.3206294,13.3206294 10.7094485,13.7094485 L16.2911746,19.2911746 Z" id="Rectangle-35-Copy-3" sketch:type="MSShapeGroup"></path>
        </g>
    </g>
</svg>