<?xml version="1.0" encoding="UTF-8" standalone="no"?>
<svg width="32px" height="32px" viewBox="0 0 32 32" version="1.1" xmlns="http://www.w3.org/2000/svg" xmlns:xlink="http://www.w3.org/1999/xlink" xmlns:sketch="http://www.bohemiancoding.com/sketch/ns">
    <!-- Generator: Sketch 3.3.3 (12072) - http://www.bohemiancoding.com/sketch -->
    <title>no-32</title>
    <desc>Created with Sketch.</desc>
    <defs></defs>
    <g id="Page-1" stroke="none" stroke-width="1" fill="none" fill-rule="evenodd" sketch:type="MSPage">
        <g id="no-32" sketch:type="MSArtboardGroup" fill="#4A4A4A">
            <path d="M31.2916938,5.70830621 C31.677968,5.32203205 31.6840146,4.68401459 31.2942268,4.29422684 L27.7057732,0.70577316 C27.3127724,0.312772393 26.6828805,0.31711949 26.2916938,0.708306206 L16.7073898,10.2926102 C16.3167092,10.6832908 15.6807046,10.6807046 15.2926102,10.2926102 L5.70830621,0.708306206 C5.32203205,0.322032049 4.68401459,0.315985407 4.29422684,0.70577316 L0.70577316,4.29422684 C0.312772393,4.68722761 0.31711949,5.31711949 0.708306206,5.70830621 L10.2926102,15.2926102 C10.6832908,15.6832908 10.6807046,16.3192954 10.2926102,16.7073898 L0.708306206,26.2916938 C0.322032049,26.677968 0.315985407,27.3159854 0.70577316,27.7057732 L4.29422684,31.2942268 C4.68722761,31.6872276 5.31711949,31.6828805 5.70830621,31.2916938 L15.2926102,21.7073898 C15.6832908,21.3167092 16.3192954,21.3192954 16.7073898,21.7073898 L26.2916938,31.2916938 C26.677968,31.677968 27.3159854,31.6840146 27.7057732,31.2942268 L31.2942268,27.7057732 C31.6872276,27.3127724 31.6828805,26.6828805 31.2916938,26.2916938 L21.7073898,16.7073898 C21.3167092,16.3167092 21.3192954,15.6807046 21.7073898,15.2926102 L31.2916938,5.70830621 Z" id="Rectangle-35" sketch:type="MSShapeGroup"></path>
        </g>
    </g>
</svg>