<?xml version="1.0" encoding="UTF-8" standalone="no"?>
<svg width="12px" height="12px" viewBox="0 0 12 12" version="1.1" xmlns="http://www.w3.org/2000/svg" xmlns:xlink="http://www.w3.org/1999/xlink" xmlns:sketch="http://www.bohemiancoding.com/sketch/ns">
    <!-- Generator: Sketch 3.3.3 (12072) - http://www.bohemiancoding.com/sketch -->
    <title>social-12</title>
    <desc>Created with Sketch.</desc>
    <defs></defs>
    <g id="Page-1" stroke="none" stroke-width="1" fill="none" fill-rule="evenodd" sketch:type="MSPage">
        <g id="social-12" sketch:type="MSArtboardGroup" fill="#4A4A4A">
            <path d="M4.68589599,4.51871263 C4.43009556,4.40437888 4.02644702,4.43158698 3.79707979,4.56018766 C3.79707979,4.56018766 3.16772808,5 2.5,5 C1.11928813,5 0,3.88071187 0,2.5 C0,1.11928813 1.11928813,0 2.5,0 C3.43408293,0 4.24851667,0.512279115 4.67767815,1.27121429 C4.88288042,1.63409686 4.92727922,2.30514018 4.92727922,2.30514018 C4.9581704,2.57362637 5.19182244,2.89558233 5.43293144,3.01613683 L5.43293144,3.01613683 C5.68130428,3.14032325 6.08540793,3.34237507 6.3220766,3.46070941 L7.33784531,3.96859376 C7.58053378,4.089938 7.96743669,4.08862738 8.21919895,3.97092633 C8.21919895,3.97092633 9.23852539,3.35192871 10.2881178,3.62676172 C11.3377101,3.90159472 12,4.89466141 12,6 C12,7.38071187 10.8807119,8.5 9.5,8.5 C8.8559237,8.5 8.24069831,8.08874997 8.24069831,8.08874997 C8.01139774,7.96042282 7.62205222,7.96490548 7.38346866,8.09215005 L5.43847398,9.12948054 C5.19433969,9.2596855 4.96524356,9.59223296 4.91960437,9.86772753 C4.91960437,9.86772753 4.87605945,10.3899533 4.65978844,10.7598981 C4.22613552,11.5016879 3.42126127,12 2.5,12 C1.11928813,12 0,10.8807119 0,9.5 C0,8.11928813 1.11928813,7 2.5,7 C3.22169605,7 3.92547258,7.53462298 3.92547258,7.53462298 C4.14795034,7.67837245 4.52571052,7.69840257 4.77852618,7.57481391 L6.20717629,6.87641989 C7.19732548,6.39238655 7.18038831,5.63366254 6.17774936,5.18551837 L4.68589599,4.51871263 Z" id="Oval-1" sketch:type="MSShapeGroup"></path>
        </g>
    </g>
</svg>