<?xml version="1.0" encoding="UTF-8" standalone="no"?>
<svg width="32px" height="32px" viewBox="0 0 32 32" version="1.1" xmlns="http://www.w3.org/2000/svg" xmlns:xlink="http://www.w3.org/1999/xlink" xmlns:sketch="http://www.bohemiancoding.com/sketch/ns">
    <!-- Generator: Sketch 3.3.3 (12072) - http://www.bohemiancoding.com/sketch -->
    <title>social-32</title>
    <desc>Created with Sketch.</desc>
    <defs></defs>
    <g id="Page-1" stroke="none" stroke-width="1" fill="none" fill-rule="evenodd" sketch:type="MSPage">
        <g id="social-32" sketch:type="MSArtboardGroup" fill="#4A4A4A">
            <path d="M6,11.9610434 C2.46350042,11.9610434 0,9.3137085 0,6 C0,2.6862915 2.6862915,0 6,0 C9.3137085,0 12,2.6862915 12,6 C12,6.43113462 11.9887557,6.26356234 11.9887557,6.26356234 C11.9221285,6.81222682 12.2686641,7.45728108 12.7546511,7.70027457 L20.5880522,11.6169751 C21.0776717,11.8617849 21.8239387,11.7750018 22.2635524,11.4496162 C22.2635524,11.4496162 23.8718052,9.93975735 26,10 C29.3123817,10.0937633 32,12.6862915 32,16 C32,19.3137085 29.3122833,21.9028217 26,22 C23.9466858,22.0602417 22.2655988,20.5391136 22.2655988,20.5391136 C21.8287349,20.2080984 21.0740391,20.1400314 20.5880522,20.3830249 L12.7546511,24.2997254 C12.2650316,24.5445352 11.9309682,25.1855747 11.9887557,25.7364377 C11.9887557,25.7364377 12,25.5688654 12,26 C12,29.3137085 9.3137085,32 6,32 C2.6862915,32 0,29.3137085 0,26 C0,22.6862915 2.6862915,20 6,20 C8.6929903,20 9.78903914,21.3970283 9.78903914,21.3970283 C10.1957273,21.7633113 10.9259609,21.8599686 11.4119478,21.6169751 L19.2453489,17.7002746 C19.7349684,17.4554648 20.0690318,16.8144253 20.0112443,16.2635623 C20.0112443,16.2635623 20,16.4311346 20,16 C20,15.5688654 20.0112443,15.7364377 20.0112443,15.7364377 C20.0778715,15.1877732 19.7313359,14.5427189 19.2453489,14.2997254 L11.4119478,10.3830249 C10.9223283,10.1382151 10.2135461,10.2555835 9.79183281,10.6128165 C9.79183281,10.6128165 8.8105154,11.9610434 6,11.9610434 Z" id="Oval-1" sketch:type="MSShapeGroup"></path>
        </g>
    </g>
</svg>