<?xml version="1.0" encoding="UTF-8" standalone="no"?>
<svg width="20px" height="20px" viewBox="0 0 20 20" version="1.1" xmlns="http://www.w3.org/2000/svg" xmlns:xlink="http://www.w3.org/1999/xlink" xmlns:sketch="http://www.bohemiancoding.com/sketch/ns">
    <!-- Generator: Sketch 3.3.3 (12072) - http://www.bohemiancoding.com/sketch -->
    <title>social-20</title>
    <desc>Created with Sketch.</desc>
    <defs></defs>
    <g id="Page-1" stroke="none" stroke-width="1" fill="none" fill-rule="evenodd" sketch:type="MSPage">
        <g id="social-20" sketch:type="MSArtboardGroup" fill="#4A4A4A">
            <path d="M7.746393,7.22038995 C7.24553661,6.99776876 6.45647052,7.03422429 5.95762233,7.29834855 C5.95762233,7.29834855 4.84535618,8 4,8 C1.790861,8 0,6.209139 0,4 C0,1.790861 1.790861,0 4,0 C5.69174311,0 7.13819174,1.0502305 7.72293155,2.53427715 C7.90176602,2.98815199 7.89670921,3.59887904 7.89670921,3.59887904 C7.93058212,4.14155362 8.36626877,4.7855919 8.85237393,5.02864448 L12.2661553,6.73553518 C12.7600815,6.98249825 13.5372514,6.9433641 14.0199359,6.66739183 C14.0199359,6.66739183 14.889781,6 16,6 C18.209139,6 20,7.790861 20,10 C20,12.209139 18.209139,14 16,14 C14.889781,14 14.0071907,13.3257343 14.0071907,13.3257343 C13.5395696,13.044933 12.7522605,13.0214122 12.2661553,13.2644648 L8.85237393,14.9713555 C8.35844779,15.2183186 7.90011019,15.8583286 7.81269776,16.4047058 C7.81269776,16.4047058 7.69878927,17.7416448 7.19104632,18.4122614 C6.46073518,19.3768415 5.30314082,20 4,20 C1.790861,20 0,18.209139 0,16 C0,13.790861 1.790861,12 4,12 C5.11021899,12 5.99280929,12.6742657 5.99280929,12.6742657 C6.46043044,12.955067 7.2450074,13.0024665 7.746393,12.77961 L11.252047,11.2214131 C12.7696995,10.5468453 12.7690683,9.45287413 11.252047,8.77858687 L7.746393,7.22038995 Z" id="Oval-1" sketch:type="MSShapeGroup"></path>
        </g>
    </g>
</svg>