<?xml version="1.0" encoding="UTF-8" standalone="no"?>
<svg width="24px" height="24px" viewBox="0 0 24 24" version="1.1" xmlns="http://www.w3.org/2000/svg" xmlns:xlink="http://www.w3.org/1999/xlink" xmlns:sketch="http://www.bohemiancoding.com/sketch/ns">
    <!-- Generator: Sketch 3.3.3 (12072) - http://www.bohemiancoding.com/sketch -->
    <title>social-24</title>
    <desc>Created with Sketch.</desc>
    <defs></defs>
    <g id="Page-1" stroke="none" stroke-width="1" fill="none" fill-rule="evenodd" sketch:type="MSPage">
        <g id="social-24" sketch:type="MSArtboardGroup" fill="#4A4A4A">
            <path d="M16.0471667,14.3495087 C16.3826813,14.1489972 16.9305767,14.1360032 17.2703517,14.3071439 C17.2703517,14.3071439 18.4206348,15 19.5,15 C21.9852814,15 24,12.9852814 24,10.5 C24,8.01471863 21.9852814,6 19.5,6 C17.5,6 16.6001243,7.1007323 16.6001243,7.1007323 C16.3198602,7.35464995 15.8056693,7.44458284 15.4377337,7.29598384 L9.65080835,4.95880519 C9.28910189,4.81272198 8.96530118,4.37864453 8.91914038,3.98899527 C8.91914038,3.98899527 8.88477247,3.33820126 8.67543789,2.81879163 C8.00944604,1.16630503 6.39092559,0 4.5,0 C2.01471863,0 0,2.01471863 0,4.5 C0,6.98528137 2.01471863,9 4.5,9 C6.22613525,9 7.33168272,7.90929199 7.33168272,7.90929199 C7.63157454,7.67049369 8.15960132,7.58222876 8.532414,7.72003894 L13.6221819,9.60147133 C15.1773088,10.1763239 15.2894811,11.3450074 13.86433,12.1952376 L7.96909032,15.6865566 C7.64070893,15.8804271 7.09610304,15.8844902 6.75317258,15.7092902 C6.75317258,15.7092902 5.59294988,15 4.5,15 C2.01471863,15 0,17.0147186 0,19.5 C0,21.9852814 2.01471863,24 4.5,24 C6.45238303,24 8.20847364,22.7875579 8.73733268,21.0185674 C8.91265488,20.4321289 8.90090015,19.3092343 8.90090015,19.3092343 C8.90739221,18.9248599 9.18819746,18.4485922 9.52015796,18.2502047 L16.0471667,14.3495087 Z" id="Shape" sketch:type="MSShapeGroup"></path>
        </g>
    </g>
</svg>