<?xml version="1.0" encoding="UTF-8" standalone="no"?>
<svg width="16px" height="16px" viewBox="0 0 16 16" version="1.1" xmlns="http://www.w3.org/2000/svg" xmlns:xlink="http://www.w3.org/1999/xlink" xmlns:sketch="http://www.bohemiancoding.com/sketch/ns">
    <!-- Generator: Sketch 3.3.3 (12072) - http://www.bohemiancoding.com/sketch -->
    <title>social-16</title>
    <desc>Created with Sketch.</desc>
    <defs></defs>
    <g id="Page-1" stroke="none" stroke-width="1" fill="none" fill-rule="evenodd" sketch:type="MSPage">
        <g id="social-16" sketch:type="MSArtboardGroup" fill="#4A4A4A">
            <path d="M7.12763407,6.1177444 C6.61828832,5.89847663 5.84346279,5.97960538 5.38089429,6.2781122 C5.38089429,6.2781122 4.54120672,7 3.5,7 C1.56700338,7 0,5.43299662 0,3.5 C0,1.56700338 1.56700338,0 3.5,0 C4.63125828,0 5.63716365,0.536699616 6.27698141,1.36936414 C6.73042908,1.95948498 6.812463,2.90639032 6.812463,2.90639032 C6.90523663,3.4397858 7.38305927,4.07001409 7.87201889,4.31026569 L9.85100891,5.28264764 C10.3434118,5.52459112 11.1482566,5.53927834 11.6682221,5.34672356 C11.6682221,5.34672356 12.320363,4.91927719 13.6223406,5.06463478 C14.9243182,5.20999237 16,6.55652892 16,8 C16,9.65685425 14.6568542,11 13,11 C12.1910876,11 11.7758345,10.6386056 11.7758345,10.6386056 C11.3017279,10.3739144 10.5071583,10.3586155 10.0123722,10.5989655 L7.01085178,12.057001 C6.51102505,12.2997997 6.0354658,12.93356 5.93284271,13.4878973 C5.93284271,13.4878973 5.90352679,13.8655557 5.73039678,14.2447183 C5.25752974,15.2803188 4.21281015,16 3,16 C1.34314575,16 0,14.6568542 0,13 C0,11.3431458 1.34314575,10 3,10 C3.83520365,10 4.35310231,10.3408442 4.35310231,10.3408442 C4.85083038,10.5679782 5.66411531,10.5715333 6.1758905,10.3460238 L8.76055324,9.20711406 C10.2735079,8.54044337 10.2720002,7.47135956 8.74413703,6.8136312 L7.12763407,6.1177444 Z" id="Oval-1-Copy-3" sketch:type="MSShapeGroup"></path>
        </g>
    </g>
</svg>