<?xml version="1.0" encoding="UTF-8" standalone="no"?>
<svg width="24px" height="24px" viewBox="0 0 24 24" version="1.1" xmlns="http://www.w3.org/2000/svg" xmlns:xlink="http://www.w3.org/1999/xlink" xmlns:sketch="http://www.bohemiancoding.com/sketch/ns">
    <!-- Generator: Sketch 3.3.3 (12072) - http://www.bohemiancoding.com/sketch -->
    <title>twitter-24</title>
    <desc>Created with Sketch.</desc>
    <defs></defs>
    <g id="Page-1" stroke="none" stroke-width="1" fill="none" fill-rule="evenodd" sketch:type="MSPage">
        <g id="twitter-24" sketch:type="MSArtboardGroup" fill="#4A4A4A">
            <path d="M0,2.00494659 C0,0.897645164 0.897026226,0 2.00494659,0 L21.9950534,0 C23.1023548,0 24,0.897026226 24,2.00494659 L24,21.9950534 C24,23.1023548 23.1029738,24 21.9950534,24 L2.00494659,24 C0.897645164,24 0,23.1029738 0,21.9950534 L0,2.00494659 Z M20.9945333,6.65725738 C20.406,6.93832946 19.7736,7.1283864 19.1098,7.21381779 C19.7872667,6.77633088 20.3076667,6.08373633 20.5526,5.25838809 C19.9185333,5.66348925 19.2163333,5.95754355 18.4688,6.11605229 C17.8702667,5.42918108 17.0174,5 16.0736667,5 C14.2614,5 12.7921333,6.58243511 12.7921333,8.53423538 C12.7921333,8.81125924 12.8211333,9.08095442 12.8771333,9.3396217 C10.1498667,9.19228046 7.73193333,7.78517514 6.11353333,5.64687759 C5.831,6.16888853 5.6692,6.7759121 5.6692,7.42369704 C5.6692,8.64988882 6.24853333,9.73167084 7.12906667,10.3654964 C6.59113333,10.3471398 6.08513333,10.1882123 5.64273333,9.9234029 C5.64246667,9.93826964 5.64246667,9.95299678 5.64246667,9.96786352 C5.64246667,11.6802604 6.7736,13.1087236 8.27466667,13.4334188 C7.99933333,13.5143133 7.70946667,13.5575176 7.4102,13.5575176 C7.19873333,13.5575176 6.99313333,13.5352524 6.79273333,13.494142 C7.2104,14.8980367 8.42226667,15.9200028 9.8582,15.9484799 C8.73513333,16.8963915 7.32026667,17.4615369 5.7828,17.4615369 C5.51793333,17.4615369 5.25673333,17.4447159 5,17.4119113 C6.4522,18.4149625 8.17706667,19 10.0302,19 C16.0659333,19 19.3666,13.6144021 19.3666,8.94401292 C19.3666,8.79087854 19.3634667,8.63844213 19.3571333,8.48677349 C19.9982667,7.98849348 20.5545333,7.36604481 20.9945333,6.65725738 Z" id="Path-Copy-6" sketch:type="MSShapeGroup"></path>
        </g>
    </g>
</svg>