<?xml version="1.0" encoding="UTF-8" standalone="no"?>
<svg width="20px" height="20px" viewBox="0 0 20 20" version="1.1" xmlns="http://www.w3.org/2000/svg" xmlns:xlink="http://www.w3.org/1999/xlink" xmlns:sketch="http://www.bohemiancoding.com/sketch/ns">
    <!-- Generator: Sketch 3.3.3 (12072) - http://www.bohemiancoding.com/sketch -->
    <title>twitter-20</title>
    <desc>Created with Sketch.</desc>
    <defs></defs>
    <g id="Page-1" stroke="none" stroke-width="1" fill="none" fill-rule="evenodd" sketch:type="MSPage">
        <g id="twitter-20" sketch:type="MSArtboardGroup" fill="#4A4A4A">
            <path d="M0,1.99079514 C0,0.891309342 0.898212381,0 1.99079514,0 L18.0092049,0 C19.1086907,0 20,0.898212381 20,1.99079514 L20,18.0092049 C20,19.1086907 19.1017876,20 18.0092049,20 L1.99079514,20 C0.891309342,20 0,19.1017876 0,18.0092049 L0,1.99079514 Z M17,5.42050633 C16.4848573,5.66142525 15.9313182,5.8243312 15.3502947,5.89755811 C15.9432806,5.52256932 16.3987863,4.92891685 16.6131762,4.22147551 C16.0581782,4.56870507 15.4435432,4.82075161 14.789228,4.95661625 C14.2653323,4.3678695 13.5188189,4 12.69277,4 C11.1064947,4 9.82044699,5.35637295 9.82044699,7.02934461 C9.82044699,7.26679363 9.84583066,7.49796093 9.89484741,7.71967574 C7.50767346,7.59338325 5.39125868,6.38729298 3.97467468,4.5544665 C3.72737352,5.00190446 3.58575013,5.52221037 3.58575013,6.07745461 C3.58575013,7.12847613 4.09284005,8.05571786 4.86357005,8.59899692 C4.39271751,8.58326271 3.94981619,8.44703912 3.56258388,8.22005963 C3.56235047,8.23280254 3.56235047,8.24542581 3.56235047,8.25816873 C3.56235047,9.72593752 4.55243041,10.9503345 5.86631266,11.2286446 C5.62531365,11.2979829 5.37159363,11.3350151 5.1096458,11.3350151 C4.92454922,11.3350151 4.74458773,11.3159306 4.5691778,11.2806932 C4.93476104,12.4840315 5.9955068,13.3600024 7.2523779,13.3844114 C6.2693587,14.196907 5.03092723,14.6813174 3.6851841,14.6813174 C3.45334656,14.6813174 3.22471845,14.6668993 3,14.6387811 C4.2711093,15.4985393 5.78088347,16 7.40292933,16 C12.6860011,16 15.5750715,11.3837732 15.5750715,7.3805825 C15.5750715,7.24932447 15.5723289,7.11866469 15.5667853,6.98866299 C16.1279687,6.56156584 16.6148684,6.02803841 17,5.42050633 Z" id="Path-Copy-7" sketch:type="MSShapeGroup"></path>
        </g>
    </g>
</svg>