<?xml version="1.0" encoding="UTF-8" standalone="no"?>
<svg width="12px" height="12px" viewBox="0 0 12 12" version="1.1" xmlns="http://www.w3.org/2000/svg" xmlns:xlink="http://www.w3.org/1999/xlink" xmlns:sketch="http://www.bohemiancoding.com/sketch/ns">
    <!-- Generator: Sketch 3.3.3 (12072) - http://www.bohemiancoding.com/sketch -->
    <title>twitter-12</title>
    <desc>Created with Sketch.</desc>
    <defs></defs>
    <g id="Page-1" stroke="none" stroke-width="1" fill="none" fill-rule="evenodd" sketch:type="MSPage">
        <g id="twitter-12" sketch:type="MSArtboardGroup" fill="#4A4A4A">
            <path d="M0,2.0085302 C0,0.899249601 0.901950359,0 2.0085302,0 L9.9914698,0 C11.1007504,0 12,0.901950359 12,2.0085302 L12,9.9914698 C12,11.1007504 11.0980496,12 9.9914698,12 L2.0085302,12 C0.899249601,12 0,11.0980496 0,9.9914698 L0,2.0085302 Z M11,2.94700422 C10.6320409,3.10761684 10.2366559,3.2162208 9.82163906,3.26503874 C10.2452004,3.01504622 10.5705616,2.6192779 10.7236973,2.14765034 C10.3272702,2.37913671 9.88824515,2.54716774 9.42087713,2.63774416 C9.04666594,2.24524633 8.51344209,2 7.92340716,2 C6.79035337,2 5.87174785,2.90424864 5.87174785,4.01956307 C5.87174785,4.17786242 5.88987904,4.33197396 5.924891,4.47978383 C4.21976675,4.39558884 2.70804191,3.59152865 1.6961962,2.36964433 C1.51955251,2.66793631 1.41839295,3.01480691 1.41839295,3.38496974 C1.41839295,4.08565076 1.78060004,4.70381191 2.33112147,5.06599795 C1.99479822,5.05550847 1.67844013,4.96469274 1.40184563,4.81337308 C1.40167891,4.82186836 1.40167891,4.83028387 1.40167891,4.83877915 C1.40167891,5.81729168 2.10887887,6.63355635 3.04736618,6.81909643 C2.87522403,6.86532191 2.69399545,6.89001007 2.50688985,6.89001007 C2.37467801,6.89001007 2.2461341,6.87728709 2.12084129,6.85379546 C2.38197217,7.65602098 3.13964771,8.2400016 4.03741278,8.25627424 C3.33525621,8.797938 2.45066231,9.12087824 1.48941722,9.12087824 C1.32381897,9.12087824 1.16051318,9.11126622 1,9.09252076 C1.90793521,9.66569283 2.98634533,10 4.14494952,10 C7.91857218,10 9.98219392,6.92251548 9.98219392,4.25372167 C9.98219392,4.16621631 9.98023491,4.07910979 9.97627523,3.99244199 C10.3771205,3.70771056 10.724906,3.35202561 11,2.94700422 Z" id="Path" sketch:type="MSShapeGroup"></path>
        </g>
    </g>
</svg>