<?xml version="1.0" encoding="UTF-8" standalone="no"?>
<svg width="32px" height="32px" viewBox="0 0 32 32" version="1.1" xmlns="http://www.w3.org/2000/svg" xmlns:xlink="http://www.w3.org/1999/xlink" xmlns:sketch="http://www.bohemiancoding.com/sketch/ns">
    <!-- Generator: Sketch 3.3.3 (12072) - http://www.bohemiancoding.com/sketch -->
    <title>twitter-32</title>
    <desc>Created with Sketch.</desc>
    <defs></defs>
    <g id="Page-1" stroke="none" stroke-width="1" fill="none" fill-rule="evenodd" sketch:type="MSPage">
        <g id="twitter-32" sketch:type="MSArtboardGroup" fill="#4A4A4A">
            <path d="M0,2.00174332 C0,0.89621101 0.889261723,0 2.00174332,0 L29.9982567,0 C31.103789,0 32,0.889261723 32,2.00174332 L32,29.9982567 C32,31.103789 31.1107383,32 29.9982567,32 L2.00174332,32 C0.89621101,32 0,31.1107383 0,29.9982567 L0,2.00174332 Z M26.6943646,9.1789802 C25.907347,9.53782178 25.0616685,9.78046535 24.1740003,9.88953465 C25.0799443,9.331 25.7758505,8.44677228 26.1033882,7.39305941 C25.255481,7.91024752 24.3164623,8.28566337 23.3168215,8.4880297 C22.5164313,7.61110891 21.3759333,7.06317822 20.1139235,7.06317822 C17.6904654,7.06317822 15.7256849,9.08345545 15.7256849,11.575297 C15.7256849,11.9289703 15.7644653,12.2732871 15.8393514,12.6035248 C12.1923073,12.4154158 8.95891997,10.6189802 6.79471056,7.8890396 C6.41689216,8.55548515 6.20052471,9.33046535 6.20052471,10.1574851 C6.20052471,11.7229505 6.97523965,13.1040495 8.15273502,13.9132475 C7.43338234,13.8898119 6.75673259,13.6869109 6.1651321,13.3488317 C6.1647755,13.3678119 6.1647755,13.3866139 6.1647755,13.4055941 C6.1647755,15.5917921 7.67738634,17.415495 9.68469146,17.8300297 C9.31650128,17.9333069 8.92887636,17.9884653 8.52868127,17.9884653 C8.24589695,17.9884653 7.97095784,17.9600396 7.70297244,17.9075545 C8.26149823,19.6998911 9.88206993,21.0046238 11.8022753,21.0409802 C10.3004517,22.2511683 8.4084177,22.9726832 6.35243659,22.9726832 C5.99824299,22.9726832 5.64895264,22.9512079 5.30563535,22.9093267 C7.2475934,24.1899109 9.55417562,24.9368218 12.0322828,24.9368218 C20.1035821,24.9368218 24.5174068,18.0610891 24.5174068,12.0984554 C24.5174068,11.9029505 24.5132167,11.7083366 24.5047474,11.514703 C25.3621046,10.8785545 26.1059736,10.0838812 26.6943646,9.1789802 Z" id="Path-Copy-5" sketch:type="MSShapeGroup"></path>
        </g>
    </g>
</svg>