<?xml version="1.0" encoding="UTF-8" standalone="no"?>
<svg width="16px" height="16px" viewBox="0 0 16 16" version="1.1" xmlns="http://www.w3.org/2000/svg" xmlns:xlink="http://www.w3.org/1999/xlink" xmlns:sketch="http://www.bohemiancoding.com/sketch/ns">
    <!-- Generator: Sketch 3.3.3 (12072) - http://www.bohemiancoding.com/sketch -->
    <title>twitter-16</title>
    <desc>Created with Sketch.</desc>
    <defs></defs>
    <g id="Page-1" stroke="none" stroke-width="1" fill="none" fill-rule="evenodd" sketch:type="MSPage">
        <g id="twitter-16" sketch:type="MSArtboardGroup" fill="#4A4A4A">
            <path d="M0,1.99406028 C0,0.892771196 0.894513756,0 1.99406028,0 L14.0059397,0 C15.1072288,0 16,0.894513756 16,1.99406028 L16,14.0059397 C16,15.1072288 15.1054862,16 14.0059397,16 L1.99406028,16 C0.892771196,16 0,15.1054862 0,14.0059397 L0,1.99406028 Z M13,4.94700422 C12.6320409,5.10761684 12.2366559,5.2162208 11.8216391,5.26503874 C12.2452004,5.01504622 12.5705616,4.6192779 12.7236973,4.14765034 C12.3272702,4.37913671 11.8882452,4.54716774 11.4208771,4.63774416 C11.0466659,4.24524633 10.5134421,4 9.92340716,4 C8.79035337,4 7.87174785,4.90424864 7.87174785,6.01956307 C7.87174785,6.17786242 7.88987904,6.33197396 7.924891,6.47978383 C6.21976675,6.39558884 4.70804191,5.59152865 3.6961962,4.36964433 C3.51955251,4.66793631 3.41839295,5.01480691 3.41839295,5.38496974 C3.41839295,6.08565076 3.78060004,6.70381191 4.33112147,7.06599795 C3.99479822,7.05550847 3.67844013,6.96469274 3.40184563,6.81337308 C3.40167891,6.82186836 3.40167891,6.83028387 3.40167891,6.83877915 C3.40167891,7.81729168 4.10887887,8.63355635 5.04736618,8.81909643 C4.87522403,8.86532191 4.69399545,8.89001007 4.50688985,8.89001007 C4.37467801,8.89001007 4.2461341,8.87728709 4.12084129,8.85379546 C4.38197217,9.65602098 5.13964771,10.2400016 6.03741278,10.2562742 C5.33525621,10.797938 4.45066231,11.1208782 3.48941722,11.1208782 C3.32381897,11.1208782 3.16051318,11.1112662 3,11.0925208 C3.90793521,11.6656928 4.98634533,12 6.14494952,12 C9.91857218,12 11.9821939,8.92251548 11.9821939,6.25372167 C11.9821939,6.16621631 11.9802349,6.07910979 11.9762752,5.99244199 C12.3771205,5.70771056 12.724906,5.35202561 13,4.94700422 Z" id="Path" sketch:type="MSShapeGroup"></path>
        </g>
    </g>
</svg>